<svg xmlns="http://www.w3.org/2000/svg" xmlns:xlink="http://www.w3.org/1999/xlink" width="70" zoomAndPan="magnify" viewBox="0 0 52.5 42" height="56" preserveAspectRatio="xMidYMid meet" version="1.0"><defs><clipPath id="42c14e3fff"><path d="M 30 6.601562 L 36 6.601562 L 36 12 L 30 12 Z M 30 6.601562 " clip-rule="nonzero"/></clipPath><clipPath id="7470b161e6"><path d="M 6 6.601562 L 12 6.601562 L 12 12 L 6 12 Z M 6 6.601562 " clip-rule="nonzero"/></clipPath><clipPath id="5a703cf152"><path d="M 0.367188 12 L 17 12 L 17 34 L 0.367188 34 Z M 0.367188 12 " clip-rule="nonzero"/></clipPath><clipPath id="6493eeb85c"><path d="M 16 21 L 26 21 L 26 34.703125 L 16 34.703125 Z M 16 21 " clip-rule="nonzero"/></clipPath><clipPath id="385fc1b810"><path d="M 10 23 L 22 23 L 22 34.703125 L 10 34.703125 Z M 10 23 " clip-rule="nonzero"/></clipPath><clipPath id="e2384ca68d"><path d="M 40 6.601562 L 45 6.601562 L 45 9 L 40 9 Z M 40 6.601562 " clip-rule="nonzero"/></clipPath><clipPath id="4261cb0160"><path d="M 36 12 L 51.644531 12 L 51.644531 34 L 36 34 Z M 36 12 " clip-rule="nonzero"/></clipPath></defs><g clip-path="url(#42c14e3fff)"><path fill="#0884C1" d="M 32.898438 6.609375 C 31.464844 6.609375 30.300781 7.765625 30.300781 9.195312 C 30.300781 10.628906 31.464844 11.785156 32.898438 11.785156 C 34.335938 11.785156 35.5 10.628906 35.5 9.195312 C 35.5 7.765625 34.335938 6.609375 32.898438 6.609375 Z M 32.898438 10.851562 C 32.273438 10.851562 31.726562 10.519531 31.421875 10.023438 L 34.378906 10.023438 C 34.070312 10.519531 33.523438 10.851562 32.898438 10.851562 Z M 32.898438 10.851562 " fill-opacity="1" fill-rule="nonzero"/></g><path fill="#0884C1" d="M 35.792969 12.644531 C 35.621094 12.507812 35.417969 12.445312 35.21875 12.445312 C 35.1875 12.445312 35.160156 12.441406 35.128906 12.441406 L 30.667969 12.441406 C 30.640625 12.441406 30.609375 12.445312 30.582031 12.445312 C 30.378906 12.445312 30.175781 12.507812 30.007812 12.644531 L 26.652344 15.277344 L 23.777344 15.628906 C 24.636719 16.035156 25.617188 16.613281 26.476562 17.152344 L 27.132812 17.074219 C 27.300781 17.050781 27.457031 16.984375 27.589844 16.882812 L 29.777344 15.167969 L 29.777344 16.527344 L 31.007812 16.257812 C 31.097656 16.238281 31.191406 16.230469 31.28125 16.230469 C 31.875 16.230469 32.394531 16.648438 32.519531 17.226562 C 32.671875 17.90625 32.238281 18.582031 31.550781 18.734375 L 29.777344 19.121094 L 29.777344 20.304688 L 29.335938 25.660156 L 30.714844 30.914062 C 30.859375 31.46875 30.714844 32.03125 30.375 32.445312 L 31.238281 32.214844 C 31.296875 32.199219 31.355469 32.191406 31.417969 32.191406 C 31.503906 32.191406 31.585938 32.210938 31.664062 32.238281 L 32.496094 22.089844 L 33.304688 22.089844 L 34.160156 32.574219 C 34.226562 33.355469 34.914062 33.9375 35.703125 33.875 C 36.488281 33.8125 37.074219 33.125 37.007812 32.34375 L 36.023438 20.304688 L 36.023438 15.167969 L 36.78125 15.761719 C 36.964844 15.070312 37.195312 14.46875 37.480469 13.96875 Z M 35.792969 12.644531 " fill-opacity="1" fill-rule="nonzero"/><path fill="#0884C1" d="M 30.757812 33.773438 L 30.390625 33.871094 C 30.519531 33.855469 30.640625 33.820312 30.757812 33.773438 Z M 30.757812 33.773438 " fill-opacity="1" fill-rule="nonzero"/><path fill="#0884C1" d="M 17.707031 15.914062 C 17.667969 15.914062 17.625 15.921875 17.582031 15.929688 C 16.507812 16.175781 14.835938 17.832031 14.0625 18.644531 L 12.191406 18.789062 L 12.191406 20.296875 L 12.21875 20.632812 L 14.566406 20.453125 C 14.605469 20.449219 14.640625 20.445312 14.679688 20.4375 L 14.820312 20.757812 L 15.914062 23.308594 L 15.914062 21.992188 C 15.914062 21.878906 15.933594 21.769531 15.960938 21.664062 L 15.417969 20.402344 L 15.269531 20.058594 C 15.746094 19.542969 16.257812 19.050781 16.710938 18.648438 C 16.648438 19.453125 16.667969 20.195312 16.734375 20.867188 C 16.851562 20.828125 16.976562 20.808594 17.101562 20.808594 L 22.527344 20.808594 C 22.40625 20.144531 22.390625 19.40625 22.554688 18.628906 C 22.601562 18.402344 22.667969 18.171875 22.75 17.941406 C 22.785156 17.832031 22.828125 17.726562 22.871094 17.617188 C 23.679688 18.015625 24.855469 18.703125 25.84375 19.34375 C 25.992188 19.441406 26.167969 19.492188 26.347656 19.492188 C 26.414062 19.492188 26.480469 19.488281 26.542969 19.472656 L 31.476562 18.394531 C 31.976562 18.285156 32.292969 17.796875 32.183594 17.300781 C 32.074219 16.800781 31.582031 16.488281 31.082031 16.597656 L 26.523438 17.589844 C 25.324219 16.828125 23.09375 15.488281 22.128906 15.4375 C 22.089844 15.4375 22.050781 15.4375 22.011719 15.441406 L 22.007812 15.4375 L 21.113281 15.535156 L 19.59375 15.699219 L 17.761719 15.902344 C 17.742188 15.902344 17.726562 15.90625 17.707031 15.914062 Z M 17.707031 15.914062 " fill-opacity="1" fill-rule="nonzero"/><path fill="#0884C1" d="M 19.316406 10.023438 C 17.882812 10.023438 16.71875 11.183594 16.71875 12.613281 C 16.71875 14.042969 17.882812 15.203125 19.316406 15.203125 C 20.753906 15.203125 21.917969 14.042969 21.917969 12.613281 C 21.917969 11.183594 20.753906 10.023438 19.316406 10.023438 Z M 19.316406 14.296875 C 18.632812 14.296875 18.03125 13.933594 17.695312 13.390625 L 20.9375 13.390625 C 20.601562 13.933594 20.003906 14.296875 19.316406 14.296875 Z M 19.316406 14.296875 " fill-opacity="1" fill-rule="nonzero"/><g clip-path="url(#7470b161e6)"><path fill="#0884C1" d="M 6.121094 9.203125 C 6.121094 10.632812 7.285156 11.792969 8.71875 11.792969 C 10.15625 11.792969 11.320312 10.632812 11.320312 9.203125 C 11.320312 7.773438 10.15625 6.613281 8.71875 6.613281 C 7.285156 6.613281 6.121094 7.773438 6.121094 9.203125 Z M 8.71875 10.757812 C 8.035156 10.757812 7.433594 10.394531 7.097656 9.855469 L 10.339844 9.855469 C 10.003906 10.394531 9.40625 10.757812 8.71875 10.757812 Z M 8.71875 10.757812 " fill-opacity="1" fill-rule="nonzero"/></g><g clip-path="url(#5a703cf152)"><path fill="#0884C1" d="M 3.238281 16.300781 C 3.070312 16.207031 2.863281 16.050781 2.695312 15.832031 C 2.609375 15.71875 2.410156 15.425781 2.464844 15.167969 C 2.574219 14.671875 2.261719 14.179688 1.761719 14.070312 C 1.261719 13.960938 0.769531 14.277344 0.660156 14.773438 C 0.457031 15.695312 0.84375 16.695312 1.699219 17.453125 C 2.164062 17.867188 2.835938 18.242188 3.5 18.242188 C 3.675781 18.242188 3.851562 18.214844 4.019531 18.160156 C 4.527344 17.984375 4.878906 17.5625 4.984375 16.996094 C 5.148438 16.109375 5.371094 15.5 5.597656 15.085938 L 5.597656 20.3125 L 4.609375 32.347656 C 4.546875 33.132812 5.132812 33.816406 5.917969 33.882812 C 6.703125 33.945312 7.394531 33.363281 7.457031 32.578125 L 8.316406 22.097656 L 9.125 22.097656 L 9.984375 32.578125 C 10.046875 33.363281 10.734375 33.945312 11.523438 33.882812 C 11.8125 33.859375 12.078125 33.746094 12.292969 33.578125 C 11.496094 32.851562 10.902344 31.898438 10.613281 30.804688 C 10.222656 29.320312 10.4375 27.769531 11.214844 26.441406 C 11.496094 25.960938 11.84375 25.527344 12.242188 25.152344 L 11.84375 20.3125 L 11.84375 15.449219 L 13.269531 16.847656 C 13.378906 16.953125 13.511719 17.03125 13.660156 17.074219 L 14.8125 17.410156 C 15.367188 16.894531 15.992188 16.367188 16.582031 16.007812 L 14.402344 15.371094 L 11.726562 12.75 C 11.597656 12.625 11.441406 12.546875 11.277344 12.507812 C 11.175781 12.46875 11.066406 12.449219 10.953125 12.449219 L 6.558594 12.449219 C 6.289062 12.414062 4.105469 12.292969 3.238281 16.300781 Z M 3.238281 16.300781 " fill-opacity="1" fill-rule="nonzero"/></g><path fill="#0884C1" d="M 26.34375 26.535156 L 27.699219 31.699219 C 27.859375 32.320312 28.421875 32.730469 29.039062 32.730469 C 29.152344 32.730469 29.273438 32.71875 29.390625 32.6875 C 30.128906 32.492188 30.574219 31.738281 30.378906 31 L 28.753906 24.804688 C 28.59375 24.195312 28.042969 23.773438 27.414062 23.773438 L 24.773438 23.773438 L 24.773438 26.535156 Z M 26.34375 26.535156 " fill-opacity="1" fill-rule="nonzero"/><path fill="#0884C1" d="M 31.328125 32.550781 L 28.828125 33.210938 C 28.511719 33.292969 28.1875 33.25 27.90625 33.085938 C 27.625 32.921875 27.425781 32.660156 27.34375 32.34375 L 26.054688 27.3125 C 26.015625 27.160156 25.878906 27.050781 25.71875 27.050781 L 24.773438 27.050781 L 24.773438 27.742188 L 25.449219 27.742188 L 26.675781 32.515625 C 26.800781 33.007812 27.113281 33.421875 27.554688 33.683594 C 27.851562 33.855469 28.179688 33.941406 28.515625 33.941406 C 28.679688 33.941406 28.84375 33.921875 29.007812 33.878906 L 31.507812 33.214844 C 31.691406 33.167969 31.800781 32.980469 31.75 32.792969 C 31.703125 32.609375 31.511719 32.5 31.328125 32.550781 Z M 31.328125 32.550781 " fill-opacity="1" fill-rule="nonzero"/><g clip-path="url(#6493eeb85c)"><path fill="#0884C1" d="M 24.5 28.46875 L 24.5 21.992188 C 24.5 21.488281 24.089844 21.078125 23.585938 21.078125 L 17.101562 21.078125 C 16.597656 21.078125 16.1875 21.488281 16.1875 21.992188 L 16.1875 23.589844 C 16.191406 23.589844 16.195312 23.589844 16.199219 23.589844 C 18.710938 23.589844 20.921875 25.210938 21.691406 27.566406 L 24.140625 27.566406 L 24.140625 29.160156 L 21.972656 29.160156 C 21.976562 29.28125 21.976562 29.398438 21.972656 29.515625 L 24.140625 29.515625 L 24.140625 31.511719 C 24.007812 31.476562 23.867188 31.457031 23.722656 31.457031 C 22.820312 31.457031 22.09375 32.183594 22.09375 33.078125 C 22.09375 33.976562 22.820312 34.703125 23.722656 34.703125 C 24.621094 34.703125 25.351562 33.976562 25.351562 33.078125 C 25.351562 32.582031 25.125 32.136719 24.769531 31.839844 C 24.761719 32.019531 24.730469 32.195312 24.671875 32.367188 C 24.824219 32.566406 24.914062 32.8125 24.914062 33.078125 C 24.914062 33.734375 24.378906 34.269531 23.722656 34.269531 C 23.0625 34.269531 22.527344 33.734375 22.527344 33.078125 C 22.527344 32.425781 23.0625 31.890625 23.722656 31.890625 C 23.863281 31.890625 24 31.917969 24.125 31.964844 C 24.09375 32.15625 24.015625 32.34375 23.902344 32.507812 L 23.828125 32.613281 C 23.792969 32.605469 23.757812 32.601562 23.722656 32.601562 C 23.457031 32.601562 23.242188 32.816406 23.242188 33.078125 C 23.242188 33.34375 23.457031 33.558594 23.722656 33.558594 C 23.984375 33.558594 24.199219 33.34375 24.199219 33.078125 C 24.199219 32.984375 24.171875 32.894531 24.121094 32.816406 L 24.195312 32.710938 C 24.394531 32.425781 24.5 32.09375 24.5 31.746094 Z M 16.546875 22.851562 L 16.546875 21.992188 C 16.546875 21.789062 16.65625 21.613281 16.820312 21.515625 L 16.820312 21.527344 C 16.878906 21.910156 16.953125 22.261719 17.035156 22.582031 L 23.117188 22.582031 C 22.953125 22.246094 22.796875 21.859375 22.675781 21.4375 L 23.585938 21.4375 C 23.691406 21.4375 23.785156 21.464844 23.867188 21.515625 C 24.03125 21.613281 24.140625 21.789062 24.140625 21.992188 L 24.140625 22.851562 Z M 16.546875 22.851562 " fill-opacity="1" fill-rule="nonzero"/></g><g clip-path="url(#385fc1b810)"><path fill="#0884C1" d="M 14.835938 24.160156 C 13.445312 24.523438 12.277344 25.402344 11.554688 26.640625 C 10.828125 27.875 10.628906 29.320312 10.996094 30.707031 C 11.628906 33.109375 13.8125 34.707031 16.199219 34.707031 C 16.652344 34.707031 17.109375 34.652344 17.566406 34.53125 C 18.957031 34.167969 20.121094 33.285156 20.847656 32.050781 C 21.570312 30.8125 21.769531 29.371094 21.40625 27.984375 C 20.652344 25.125 17.703125 23.40625 14.835938 24.160156 Z M 12.066406 26.9375 C 12.261719 26.609375 12.492188 26.308594 12.753906 26.035156 L 13.195312 26.484375 C 12.480469 27.230469 12.042969 28.234375 12.042969 29.34375 C 12.042969 29.667969 12.082031 29.980469 12.152344 30.285156 L 11.542969 30.441406 C 11.257812 29.246094 11.441406 28.003906 12.066406 26.9375 Z M 17.09375 25.652344 L 16.324219 28.453125 C 16.210938 28.4375 16.089844 28.445312 15.972656 28.476562 C 15.851562 28.507812 15.746094 28.558594 15.652344 28.628906 L 13.605469 26.566406 C 14.285156 25.933594 15.199219 25.546875 16.199219 25.546875 C 16.507812 25.546875 16.808594 25.585938 17.09375 25.652344 Z M 19.855469 28.269531 L 17.035156 29.007812 C 16.941406 28.78125 16.765625 28.605469 16.546875 28.515625 L 17.316406 25.714844 C 18.535156 26.085938 19.492188 27.050781 19.855469 28.269531 Z M 20.011719 29.34375 C 20.011719 30.359375 19.609375 31.277344 18.960938 31.960938 L 16.910156 29.898438 C 17.054688 29.710938 17.125 29.472656 17.09375 29.230469 L 19.914062 28.492188 C 19.976562 28.765625 20.011719 29.050781 20.011719 29.34375 Z M 16.054688 28.796875 C 16.359375 28.71875 16.671875 28.898438 16.75 29.203125 C 16.828125 29.503906 16.648438 29.8125 16.34375 29.890625 C 16.039062 29.972656 15.730469 29.789062 15.652344 29.488281 C 15.570312 29.1875 15.753906 28.875 16.054688 28.796875 Z M 15.363281 29.683594 C 15.457031 29.910156 15.636719 30.082031 15.851562 30.171875 L 15.082031 32.976562 C 13.867188 32.601562 12.90625 31.636719 12.542969 30.417969 Z M 16.074219 30.234375 C 16.191406 30.25 16.308594 30.246094 16.429688 30.214844 C 16.546875 30.183594 16.65625 30.128906 16.746094 30.058594 L 18.796875 32.121094 C 18.113281 32.753906 17.203125 33.140625 16.199219 33.140625 C 15.890625 33.140625 15.59375 33.105469 15.304688 33.035156 Z M 15.488281 28.792969 C 15.34375 28.976562 15.273438 29.214844 15.304688 29.460938 L 12.488281 30.195312 C 12.421875 29.921875 12.386719 29.636719 12.386719 29.34375 C 12.386719 28.332031 12.789062 27.410156 13.441406 26.730469 Z M 11.601562 30.664062 L 12.210938 30.507812 C 12.601562 31.84375 13.65625 32.902344 14.992188 33.308594 L 14.828125 33.914062 C 14.46875 33.804688 14.117188 33.65625 13.785156 33.460938 C 12.714844 32.839844 11.945312 31.847656 11.601562 30.664062 Z M 17.414062 33.957031 C 16.625 34.164062 15.816406 34.164062 15.050781 33.972656 L 15.214844 33.371094 C 15.53125 33.445312 15.859375 33.488281 16.199219 33.488281 C 17.296875 33.488281 18.296875 33.0625 19.039062 32.367188 L 19.484375 32.816406 C 18.910156 33.355469 18.203125 33.75 17.414062 33.957031 Z M 20.332031 31.75 C 20.136719 32.082031 19.90625 32.382812 19.648438 32.652344 L 19.203125 32.207031 C 19.917969 31.460938 20.359375 30.453125 20.359375 29.34375 C 20.359375 29.023438 20.320312 28.707031 20.25 28.40625 L 20.855469 28.246094 C 21.140625 29.445312 20.957031 30.683594 20.332031 31.75 Z M 20.796875 28.023438 L 20.191406 28.183594 C 19.796875 26.84375 18.746094 25.785156 17.40625 25.382812 L 17.574219 24.777344 C 19.082031 25.230469 20.332031 26.417969 20.796875 28.023438 Z M 17.351562 24.71875 L 17.183594 25.320312 C 16.871094 25.242188 16.539062 25.203125 16.199219 25.203125 C 15.101562 25.203125 14.105469 25.628906 13.359375 26.324219 L 12.914062 25.875 C 13.492188 25.332031 14.199219 24.9375 14.984375 24.734375 C 15.390625 24.625 15.796875 24.578125 16.199219 24.578125 C 16.589844 24.578125 16.976562 24.625 17.351562 24.71875 Z M 17.351562 24.71875 " fill-opacity="1" fill-rule="nonzero"/></g><path fill="#0884C1" d="M 43.390625 8.824219 C 43.34375 9.316406 42.910156 9.679688 42.417969 9.632812 C 41.925781 9.589844 41.5625 9.15625 41.605469 8.667969 C 41.605469 8.65625 41.609375 8.648438 41.609375 8.640625 L 41.234375 8.605469 C 41.234375 8.613281 41.234375 8.625 41.230469 8.632812 C 41.1875 9.125 40.753906 9.488281 40.261719 9.445312 C 40.082031 9.425781 39.921875 9.359375 39.789062 9.257812 C 39.824219 10.65625 40.972656 11.777344 42.386719 11.777344 C 43.820312 11.777344 44.984375 10.621094 44.984375 9.191406 C 44.984375 9.105469 44.980469 9.019531 44.972656 8.9375 L 43.390625 8.796875 C 43.390625 8.804688 43.390625 8.816406 43.390625 8.824219 Z M 40.671875 10.25 C 40.671875 10.25 42.207031 10.503906 43.148438 9.882812 C 43.148438 9.882812 42.207031 11.9375 40.671875 10.25 Z M 40.671875 10.25 " fill-opacity="1" fill-rule="nonzero"/><g clip-path="url(#e2384ca68d)"><path fill="#0884C1" d="M 40.421875 7.667969 C 40.804688 7.699219 41.113281 7.976562 41.207031 8.328125 L 41.6875 8.371094 C 41.839844 8.039062 42.191406 7.824219 42.578125 7.859375 C 42.964844 7.890625 43.269531 8.167969 43.363281 8.519531 L 44.929688 8.660156 C 44.683594 7.484375 43.636719 6.601562 42.386719 6.601562 C 41.523438 6.601562 40.757812 7.019531 40.285156 7.664062 C 40.328125 7.664062 40.375 7.664062 40.421875 7.667969 Z M 40.421875 7.667969 " fill-opacity="1" fill-rule="nonzero"/></g><g clip-path="url(#4261cb0160)"><path fill="#0884C1" d="M 40.691406 33.894531 C 41.476562 33.894531 42.117188 33.257812 42.117188 32.472656 L 42.117188 22.085938 L 42.8125 22.085938 L 43.40625 23.453125 L 44.332031 25.601562 L 42.382812 28.078125 L 42.382812 32.472656 C 42.382812 33.054688 42.085938 33.566406 41.636719 33.871094 C 42.421875 33.871094 43.054688 33.238281 43.054688 32.460938 L 43.054688 31.796875 L 47.078125 26.683594 C 47.398438 26.277344 47.46875 25.730469 47.265625 25.257812 L 45.710938 21.660156 L 45.507812 21.191406 L 45.507812 16.125 L 46.292969 17.3125 C 46.464844 17.570312 46.757812 17.726562 47.066406 17.726562 C 47.097656 17.726562 47.128906 17.722656 47.164062 17.71875 L 51.167969 17.296875 C 51.675781 17.246094 52.042969 16.792969 51.988281 16.285156 C 51.933594 15.78125 51.480469 15.414062 50.972656 15.46875 L 47.527344 15.828125 L 45.558594 12.851562 C 45.367188 12.566406 45.046875 12.421875 44.722656 12.441406 C 44.6875 12.4375 44.652344 12.433594 44.617188 12.433594 L 40.152344 12.433594 C 40.09375 12.433594 40.035156 12.441406 39.980469 12.453125 C 39.671875 12.484375 39.210938 12.605469 38.726562 12.988281 C 37.691406 13.804688 37.035156 15.40625 36.773438 17.757812 C 36.667969 18.71875 37.269531 19.410156 37.804688 20.023438 C 38.050781 20.304688 38.289062 20.582031 38.46875 20.878906 L 39.914062 19.710938 C 39.679688 19.367188 39.421875 19.074219 39.199219 18.816406 C 38.945312 18.523438 38.59375 18.121094 38.613281 17.960938 C 38.796875 16.285156 39.171875 15.332031 39.519531 14.820312 L 39.757812 14.945312 C 39.597656 15.175781 39.421875 15.523438 39.261719 16.035156 L 39.261719 18.484375 C 39.316406 18.546875 39.363281 18.601562 39.398438 18.644531 C 39.625 18.902344 39.882812 19.199219 40.121094 19.542969 L 40.304688 19.394531 C 40.304688 19.394531 40.371094 19.472656 40.46875 19.601562 L 38.035156 21.574219 C 38.035156 21.574219 38.285156 22.789062 38.890625 23.621094 C 39.003906 23.773438 39.125 23.914062 39.261719 24.03125 L 39.261719 32.472656 C 39.261719 33.257812 39.902344 33.894531 40.691406 33.894531 Z M 40.691406 33.894531 " fill-opacity="1" fill-rule="nonzero"/></g><path fill="#0884C1" d="M 41.019531 8.554688 C 41.019531 8.742188 40.953125 8.902344 40.820312 9.03125 C 40.6875 9.164062 40.527344 9.230469 40.339844 9.230469 C 40.152344 9.230469 39.992188 9.164062 39.859375 9.03125 C 39.726562 8.902344 39.660156 8.742188 39.660156 8.554688 C 39.660156 8.367188 39.726562 8.207031 39.859375 8.078125 C 39.992188 7.945312 40.152344 7.878906 40.339844 7.878906 C 40.527344 7.878906 40.6875 7.945312 40.820312 8.078125 C 40.953125 8.207031 41.019531 8.367188 41.019531 8.554688 Z M 41.019531 8.554688 " fill-opacity="1" fill-rule="nonzero"/><path fill="#0884C1" d="M 42.558594 8.074219 C 42.183594 8.039062 41.855469 8.316406 41.820312 8.6875 C 41.789062 9.058594 42.066406 9.386719 42.4375 9.417969 C 42.8125 9.453125 43.140625 9.179688 43.171875 8.804688 C 43.207031 8.433594 42.929688 8.105469 42.558594 8.074219 Z M 42.558594 8.074219 " fill-opacity="1" fill-rule="nonzero"/></svg>