<svg xmlns="http://www.w3.org/2000/svg" xmlns:xlink="http://www.w3.org/1999/xlink" width="70" zoomAndPan="magnify" viewBox="0 0 52.5 42" height="56" preserveAspectRatio="xMidYMid meet" version="1.0"><defs><clipPath id="714bf18b48"><path d="M 6 7 L 51.644531 7 L 51.644531 41.023438 L 6 41.023438 Z M 6 7 " clip-rule="nonzero"/></clipPath><clipPath id="33f07fb6ab"><path d="M 0.367188 27 L 14 27 L 14 37 L 0.367188 37 Z M 0.367188 27 " clip-rule="nonzero"/></clipPath></defs><g clip-path="url(#714bf18b48)"><path fill="#0884C1" d="M 46.46875 7.613281 L 46.46875 11.835938 L 40.800781 11.835938 L 40.800781 16.0625 L 35.132812 16.0625 L 35.132812 20.285156 L 29.464844 20.285156 L 29.464844 24.507812 L 23.800781 24.507812 L 23.800781 28.730469 L 18.132812 28.730469 L 18.132812 32.957031 L 12.464844 32.957031 L 12.464844 37.179688 L 6.796875 37.179688 L 6.796875 41.402344 L 52.132812 41.402344 L 52.132812 7.613281 Z M 46.46875 7.613281 " fill-opacity="1" fill-rule="nonzero"/></g><g clip-path="url(#33f07fb6ab)"><path fill="#0884C1" d="M 11.835938 27.324219 C 11.785156 27.324219 11.730469 27.320312 11.679688 27.308594 L 0.367188 35.742188 L 1.046875 36.644531 L 13.550781 27.324219 Z M 11.835938 27.324219 " fill-opacity="1" fill-rule="nonzero"/></g><path fill="#0884C1" d="M 22.460938 19.863281 L 22.039062 19.863281 L 22.039062 21 L 46.382812 2.855469 L 45.703125 1.953125 L 23.453125 18.535156 L 23.453125 18.875 C 23.453125 19.421875 23.007812 19.863281 22.460938 19.863281 Z M 22.460938 19.863281 " fill-opacity="1" fill-rule="nonzero"/><path fill="#0884C1" d="M 10.765625 13.527344 L 8.355469 13.527344 C 8.042969 13.527344 7.789062 13.777344 7.789062 14.089844 L 7.789062 15.074219 C 7.789062 15.386719 8.042969 15.636719 8.355469 15.636719 L 10.765625 15.636719 C 11.078125 15.636719 11.332031 15.386719 11.332031 15.074219 L 11.332031 14.089844 C 11.332031 13.777344 11.078125 13.527344 10.765625 13.527344 Z M 10.765625 13.527344 " fill-opacity="1" fill-rule="nonzero"/><path fill="#0884C1" d="M 21.675781 14.089844 L 21.675781 15.074219 C 21.675781 15.386719 21.925781 15.636719 22.242188 15.636719 L 24.648438 15.636719 C 24.960938 15.636719 25.214844 15.386719 25.214844 15.074219 L 25.214844 14.089844 C 25.214844 13.777344 24.960938 13.527344 24.648438 13.527344 L 22.242188 13.527344 C 21.925781 13.527344 21.675781 13.777344 21.675781 14.089844 Z M 21.675781 14.089844 " fill-opacity="1" fill-rule="nonzero"/><path fill="#0884C1" d="M 16.59375 17.46875 L 16.167969 17.46875 L 16.382812 18.488281 Z M 16.59375 17.46875 " fill-opacity="1" fill-rule="nonzero"/><path fill="#0884C1" d="M 21.046875 26.902344 C 21.359375 26.902344 21.613281 26.648438 21.613281 26.339844 L 21.613281 19.441406 L 22.460938 19.441406 C 22.773438 19.441406 23.027344 19.1875 23.027344 18.875 L 23.027344 18.03125 C 23.027344 17.722656 22.773438 17.46875 22.460938 17.46875 L 20.75 17.46875 L 19.335938 24.246094 C 19.109375 25.335938 18.03125 26.039062 16.929688 25.8125 C 16.734375 25.773438 16.550781 25.703125 16.382812 25.613281 C 16.214844 25.703125 16.027344 25.773438 15.832031 25.8125 C 14.734375 26.039062 13.652344 25.335938 13.425781 24.246094 L 12.011719 17.46875 L 10.421875 17.46875 C 10.105469 17.46875 9.851562 17.722656 9.851562 18.03125 L 9.851562 18.875 C 9.851562 19.1875 10.105469 19.441406 10.421875 19.441406 L 11.269531 19.441406 L 11.269531 26.339844 C 11.269531 26.648438 11.523438 26.902344 11.835938 26.902344 Z M 21.046875 26.902344 " fill-opacity="1" fill-rule="nonzero"/><path fill="#0884C1" d="M 9.574219 11.554688 C 9.878906 12.320312 10.527344 12.949219 11.386719 13.375 C 11.707031 13.535156 12.058594 13.671875 12.445312 13.789062 C 12.675781 13.617188 12.945312 13.488281 13.246094 13.429688 C 14.03125 13.265625 14.800781 13.578125 15.265625 14.167969 C 15.667969 14.027344 15.972656 13.667969 16.019531 13.214844 C 16.082031 12.597656 15.628906 12.046875 15.003906 11.984375 C 13.757812 11.859375 12.910156 11.617188 12.40625 11.363281 C 11.894531 11.101562 11.746094 10.878906 11.675781 10.714844 C 11.640625 10.628906 11.625 10.539062 11.625 10.421875 C 11.621094 10.347656 11.632812 10.261719 11.652344 10.164062 C 11.691406 9.96875 11.773438 9.742188 11.90625 9.496094 C 12.078125 9.167969 12.332031 8.820312 12.609375 8.507812 L 12.609375 11.148438 C 12.960938 11.3125 13.699219 11.574219 15.03125 11.703125 C 15.410156 11.742188 15.75 11.921875 15.988281 12.210938 C 16.226562 12.503906 16.339844 12.871094 16.300781 13.246094 C 16.246094 13.78125 15.902344 14.21875 15.429688 14.40625 C 15.53125 14.585938 15.609375 14.785156 15.652344 14.996094 L 16.066406 16.984375 L 16.695312 16.984375 L 17.109375 14.996094 C 17.15625 14.769531 17.246094 14.558594 17.359375 14.367188 C 16.9375 14.160156 16.632812 13.742188 16.582031 13.246094 C 16.542969 12.871094 16.65625 12.503906 16.894531 12.210938 C 17.132812 11.921875 17.472656 11.742188 17.851562 11.703125 C 19.179688 11.574219 19.921875 11.3125 20.273438 11.148438 L 20.273438 8.507812 C 20.4375 8.695312 20.597656 8.894531 20.734375 9.09375 C 20.996094 9.476562 21.167969 9.863281 21.230469 10.164062 C 21.25 10.261719 21.261719 10.347656 21.257812 10.421875 C 21.257812 10.539062 21.238281 10.628906 21.207031 10.714844 C 21.203125 10.71875 21.203125 10.71875 21.203125 10.71875 C 21.132812 10.886719 20.984375 11.105469 20.476562 11.363281 C 19.972656 11.617188 19.125 11.859375 17.878906 11.984375 C 17.253906 12.046875 16.800781 12.597656 16.863281 13.214844 C 16.90625 13.632812 17.167969 13.972656 17.527344 14.128906 C 17.992188 13.566406 18.75 13.269531 19.515625 13.429688 C 19.832031 13.492188 20.113281 13.628906 20.351562 13.8125 C 20.773438 13.691406 21.152344 13.546875 21.496094 13.375 C 22.355469 12.949219 23.007812 12.320312 23.3125 11.550781 C 23.324219 11.515625 23.339844 11.476562 23.347656 11.441406 C 23.460938 11.128906 23.515625 10.808594 23.523438 10.5 C 23.523438 10.472656 23.523438 10.449219 23.523438 10.421875 C 23.523438 9.691406 23.289062 9.03125 22.980469 8.449219 C 22.511719 7.570312 21.855469 6.828125 21.21875 6.261719 C 20.894531 5.980469 20.582031 5.746094 20.269531 5.558594 C 20.113281 5.464844 19.957031 5.382812 19.785156 5.316406 C 19.699219 5.285156 19.609375 5.253906 19.511719 5.230469 C 19.433594 5.203125 19.351562 5.1875 19.265625 5.183594 C 18.632812 6.058594 17.605469 6.628906 16.441406 6.628906 C 15.277344 6.628906 14.25 6.054688 13.617188 5.183594 C 13.535156 5.1875 13.453125 5.203125 13.371094 5.230469 C 13.203125 5.269531 13.066406 5.328125 12.929688 5.386719 C 12.554688 5.566406 12.199219 5.8125 11.824219 6.125 C 11.265625 6.59375 10.6875 7.203125 10.214844 7.917969 C 9.75 8.632812 9.363281 9.460938 9.355469 10.421875 C 9.355469 10.449219 9.359375 10.476562 9.359375 10.503906 C 9.367188 10.847656 9.433594 11.207031 9.570312 11.550781 C 9.570312 11.554688 9.574219 11.554688 9.574219 11.554688 Z M 9.574219 11.554688 " fill-opacity="1" fill-rule="nonzero"/><path fill="#0884C1" d="M 19.628906 3.179688 C 19.628906 3.597656 19.546875 4.003906 19.386719 4.390625 C 19.222656 4.777344 18.996094 5.121094 18.695312 5.417969 C 18.394531 5.714844 18.050781 5.945312 17.660156 6.105469 C 17.269531 6.265625 16.863281 6.347656 16.441406 6.347656 C 16.019531 6.347656 15.613281 6.265625 15.222656 6.105469 C 14.832031 5.945312 14.484375 5.714844 14.1875 5.417969 C 13.886719 5.121094 13.65625 4.777344 13.496094 4.390625 C 13.335938 4.003906 13.253906 3.597656 13.253906 3.179688 C 13.253906 2.757812 13.335938 2.355469 13.496094 1.964844 C 13.65625 1.578125 13.886719 1.234375 14.1875 0.9375 C 14.484375 0.640625 14.832031 0.414062 15.222656 0.253906 C 15.613281 0.0898438 16.019531 0.0117188 16.441406 0.0117188 C 16.863281 0.0117188 17.269531 0.0898438 17.660156 0.253906 C 18.050781 0.414062 18.394531 0.640625 18.695312 0.9375 C 18.996094 1.234375 19.222656 1.578125 19.386719 1.964844 C 19.546875 2.355469 19.628906 2.757812 19.628906 3.179688 Z M 19.628906 3.179688 " fill-opacity="1" fill-rule="nonzero"/><path fill="#0884C1" d="M 13.703125 24.1875 C 13.898438 25.128906 14.828125 25.734375 15.773438 25.539062 C 15.890625 25.515625 16 25.480469 16.105469 25.433594 C 15.507812 24.976562 15.1875 24.207031 15.351562 23.421875 L 16.238281 19.179688 L 15.375 15.054688 C 15.179688 14.113281 14.253906 13.507812 13.304688 13.703125 C 12.359375 13.898438 11.75 14.820312 11.945312 15.761719 Z M 13.703125 24.1875 " fill-opacity="1" fill-rule="nonzero"/><path fill="#0884C1" d="M 15.628906 23.480469 C 15.433594 24.421875 16.042969 25.34375 16.988281 25.539062 C 17.9375 25.734375 18.863281 25.128906 19.058594 24.1875 L 20.816406 15.761719 C 21.015625 14.820312 20.40625 13.898438 19.457031 13.703125 C 18.511719 13.507812 17.582031 14.113281 17.386719 15.054688 Z M 15.628906 23.480469 " fill-opacity="1" fill-rule="nonzero"/></svg>