<svg xmlns="http://www.w3.org/2000/svg" width="375" viewBox="0 0 375 375" height="375" version="1.0"><path fill="#FFF" d="M-37.5 -37.5H412.5V412.5H-37.5z"/><path fill="#FFF" d="M-37.5 -37.5H412.5V412.5H-37.5z"/><path fill="#0D4A6D" d="M-37.5 -37.5H412.5V412.5H-37.5z"/><g fill="#FFF"><g><g><path d="M 8.0625 0 L 0.21875 -22.109375 L 5.953125 -22.109375 L 11.4375 -5.265625 L 16.921875 -22.109375 L 22.65625 -22.109375 L 14.8125 0 Z M 8.0625 0" transform="translate(88.625 196.5)"/></g></g></g><g fill="#FFF"><g><g><path d="M 15.75 -22.171875 L 15.75 -18.078125 L 7.75 -18.078125 L 7.75 -13.328125 L 14.8125 -13.328125 L 14.8125 -9.234375 L 7.75 -9.234375 L 7.75 -4.09375 L 15.75 -4.09375 L 15.75 0 L 2.359375 0 L 2.359375 -22.171875 Z M 15.75 -22.171875" transform="translate(111.494 196.5)"/></g></g></g><g fill="#FFF"><g><g><path d="M 2.359375 0 L 2.359375 -22.109375 L 7.75 -22.109375 L 7.75 0 Z M 2.359375 0" transform="translate(129.512 196.5)"/></g></g></g><g fill="#FFF"><g><g><path d="M 7.75 -4.09375 L 10.140625 -4.09375 C 12.203125 -4.09375 13.820312 -4.722656 15 -5.984375 C 16.175781 -7.242188 16.765625 -8.929688 16.765625 -11.046875 C 16.765625 -13.171875 16.175781 -14.863281 15 -16.125 C 13.820312 -17.382812 12.203125 -18.015625 10.140625 -18.015625 L 7.75 -18.015625 Z M 10.140625 -22.109375 C 13.671875 -22.109375 16.566406 -21.082031 18.828125 -19.03125 C 21.097656 -16.988281 22.234375 -14.332031 22.234375 -11.0625 C 22.234375 -7.800781 21.097656 -5.140625 18.828125 -3.078125 C 16.566406 -1.023438 13.671875 0 10.140625 0 L 2.359375 0 L 2.359375 -22.109375 Z M 10.140625 -22.109375" transform="translate(139.624 196.5)"/></g></g></g><g fill="#FFF"><g><g><path d="M 2.359375 -22.109375 L 7.75 -22.109375 L 7.75 -4.09375 L 14.453125 -4.09375 L 14.453125 0 L 2.359375 0 Z M 2.359375 -22.109375" transform="translate(162.902 196.5)"/></g></g></g><g fill="#FFF"><g><g><path d="M 13.515625 0 L 8.125 0 L 8.125 -7.125 L 0.46875 -22.109375 L 6.578125 -22.109375 L 10.84375 -12.125 L 15.0625 -22.109375 L 21.171875 -22.109375 L 13.515625 -7.125 Z M 13.515625 0" transform="translate(177.99 196.5)"/></g></g></g><g fill="#FFF"><g><g><path d="M 7 -2.9375 C 7 -2.113281 6.710938 -1.414062 6.140625 -0.84375 C 5.578125 -0.28125 4.878906 0 4.046875 0 C 3.210938 0 2.515625 -0.28125 1.953125 -0.84375 C 1.390625 -1.414062 1.109375 -2.113281 1.109375 -2.9375 C 1.109375 -3.769531 1.390625 -4.46875 1.953125 -5.03125 C 2.515625 -5.601562 3.210938 -5.890625 4.046875 -5.890625 C 4.878906 -5.890625 5.578125 -5.601562 6.140625 -5.03125 C 6.710938 -4.46875 7 -3.769531 7 -2.9375 Z M 7 -2.9375" transform="translate(199.631 196.5)"/></g></g></g><g fill="#FFF"><g><g><path d="M 4.359375 -3 C 2.171875 -5.132812 1.078125 -7.835938 1.078125 -11.109375 C 1.078125 -14.390625 2.171875 -17.09375 4.359375 -19.21875 C 6.554688 -21.351562 9.238281 -22.421875 12.40625 -22.421875 C 14.863281 -22.421875 17.046875 -21.769531 18.953125 -20.46875 C 20.867188 -19.164062 22.207031 -17.363281 22.96875 -15.0625 L 16.53125 -15.0625 C 15.695312 -16.675781 14.351562 -17.484375 12.5 -17.484375 C 10.65625 -17.484375 9.203125 -16.90625 8.140625 -15.75 C 7.078125 -14.59375 6.546875 -13.046875 6.546875 -11.109375 C 6.546875 -9.179688 7.078125 -7.640625 8.140625 -6.484375 C 9.203125 -5.328125 10.65625 -4.75 12.5 -4.75 C 14.351562 -4.75 15.695312 -5.5625 16.53125 -7.1875 L 22.96875 -7.1875 C 22.207031 -4.875 20.867188 -3.066406 18.953125 -1.765625 C 17.046875 -0.460938 14.863281 0.1875 12.40625 0.1875 C 9.238281 0.1875 6.554688 -0.875 4.359375 -3 Z M 4.359375 -3" transform="translate(207.727 196.5)"/></g></g></g><g fill="#FFF"><g><g><path d="M 16.640625 -6.484375 C 17.703125 -7.640625 18.234375 -9.179688 18.234375 -11.109375 C 18.234375 -13.046875 17.703125 -14.59375 16.640625 -15.75 C 15.585938 -16.90625 14.171875 -17.484375 12.390625 -17.484375 C 10.617188 -17.484375 9.203125 -16.90625 8.140625 -15.75 C 7.078125 -14.59375 6.546875 -13.046875 6.546875 -11.109375 C 6.546875 -9.179688 7.078125 -7.640625 8.140625 -6.484375 C 9.203125 -5.328125 10.617188 -4.75 12.390625 -4.75 C 14.171875 -4.75 15.585938 -5.328125 16.640625 -6.484375 Z M 4.359375 -2.984375 C 2.171875 -5.128906 1.078125 -7.835938 1.078125 -11.109375 C 1.078125 -14.390625 2.171875 -17.09375 4.359375 -19.21875 C 6.554688 -21.351562 9.242188 -22.421875 12.421875 -22.421875 C 15.609375 -22.421875 18.285156 -21.351562 20.453125 -19.21875 C 22.628906 -17.09375 23.71875 -14.390625 23.71875 -11.109375 C 23.71875 -7.835938 22.625 -5.128906 20.4375 -2.984375 C 18.257812 -0.847656 15.582031 0.21875 12.40625 0.21875 C 9.238281 0.21875 6.554688 -0.847656 4.359375 -2.984375 Z M 4.359375 -2.984375" transform="translate(231.793 196.5)"/></g></g></g><g fill="#FFF"><g><g><path d="M 27.40625 -22.109375 L 27.40625 0 L 22.015625 0 L 22.015625 -12.46875 L 16.890625 0 L 12.890625 0 L 7.75 -12.46875 L 7.75 0 L 2.359375 0 L 2.359375 -22.109375 L 8.53125 -22.109375 L 14.90625 -6.859375 L 21.234375 -22.109375 Z M 27.40625 -22.109375" transform="translate(256.615 196.5)"/></g></g></g></svg>