<?xml version="1.0" encoding="UTF-8"?><svg id="Warstwa_2" xmlns="http://www.w3.org/2000/svg" xmlns:xlink="http://www.w3.org/1999/xlink" viewBox="0 0 467.22 268.86"><defs><style>.cls-1{fill:#f6f6f6;}.cls-2{fill:#f9f6de;}.cls-3{fill:#fff;}.cls-4{fill:#0d84c1;}.cls-5{fill-rule:evenodd;stroke-dasharray:0 12;}.cls-5,.cls-6,.cls-7{fill:none;stroke:#565f66;}.cls-5,.cls-7{stroke-miterlimit:10;}.cls-6{stroke-linecap:round;stroke-linejoin:round;}.cls-6,.cls-7{stroke-width:2px;}.cls-8{fill:url(#Gradient_bez_nazwy_68-3);}.cls-9{fill:url(#Gradient_bez_nazwy_68-2);}.cls-10{fill:url(#Gradient_bez_nazwy_68-4);}.cls-11{fill:url(#Gradient_bez_nazwy_3-4);}.cls-12{fill:url(#Gradient_bez_nazwy_3-3);}.cls-13{fill:url(#Gradient_bez_nazwy_3-2);}.cls-14{fill:url(#Gradient_bez_nazwy_100);}.cls-15{fill:url(#Gradient_bez_nazwy_105);}.cls-16{fill:url(#Gradient_bez_nazwy_8-3);}.cls-17{fill:url(#Gradient_bez_nazwy_8-2);}.cls-18{fill:url(#Gradient_bez_nazwy_8-6);}.cls-19{fill:url(#Gradient_bez_nazwy_8-4);}.cls-20{fill:url(#Gradient_bez_nazwy_8-5);}.cls-21{fill:url(#Gradient_bez_nazwy_8);}.cls-22{fill:url(#Gradient_bez_nazwy_3);}.cls-23{fill:url(#Gradient_bez_nazwy_68);}</style><linearGradient id="Gradient_bez_nazwy_3" x1="3.46" y1="231.38" x2="73.66" y2="231.38" gradientUnits="userSpaceOnUse"><stop offset="0" stop-color="#fff"/><stop offset=".05" stop-color="#d8f1e5"/><stop offset=".11" stop-color="#b0e3cb"/><stop offset=".17" stop-color="#8cd7b3"/><stop offset=".24" stop-color="#6dcd9f"/><stop offset=".32" stop-color="#55c48e"/><stop offset=".41" stop-color="#42be82"/><stop offset=".51" stop-color="#35b979"/><stop offset=".64" stop-color="#2db674"/><stop offset=".89" stop-color="#2bb673"/></linearGradient><linearGradient id="Gradient_bez_nazwy_3-2" x1="13.35" y1="231.17" x2="63.64" y2="231.17" xlink:href="#Gradient_bez_nazwy_3"/><linearGradient id="Gradient_bez_nazwy_3-3" x1="53.69" y1="256.78" x2="74.14" y2="256.78" xlink:href="#Gradient_bez_nazwy_3"/><linearGradient id="Gradient_bez_nazwy_3-4" x1="3.39" y1="206.35" x2="24.12" y2="206.35" xlink:href="#Gradient_bez_nazwy_3"/><radialGradient id="Gradient_bez_nazwy_8" cx="335.67" cy="29.34" fx="335.67" fy="29.34" r="16.89" gradientTransform="translate(57.76 25.94)" gradientUnits="userSpaceOnUse"><stop offset="0" stop-color="#fff"/><stop offset="1" stop-color="#f9b5a4"/></radialGradient><radialGradient id="Gradient_bez_nazwy_8-2" cx="372.26" cy="29.66" fx="372.26" fy="29.66" r="16.89" gradientTransform="translate(45.9 52.58)" xlink:href="#Gradient_bez_nazwy_8"/><radialGradient id="Gradient_bez_nazwy_8-3" cx="384.09" cy="29.54" fx="384.09" fy="29.54" r="11.77" gradientTransform="translate(42.23 61.27)" xlink:href="#Gradient_bez_nazwy_8"/><radialGradient id="Gradient_bez_nazwy_8-4" cx="324.01" cy="29.13" fx="324.01" fy="29.13" r="11.77" gradientTransform="translate(61.61 17.48)" xlink:href="#Gradient_bez_nazwy_8"/><radialGradient id="Gradient_bez_nazwy_8-5" cx="393.96" cy="29.37" fx="393.96" fy="29.37" r="3.92" gradientTransform="translate(39.23 68.54)" xlink:href="#Gradient_bez_nazwy_8"/><radialGradient id="Gradient_bez_nazwy_8-6" cx="314.36" cy="29.13" fx="314.36" fy="29.13" r="4" gradientTransform="translate(64.68 10.43)" xlink:href="#Gradient_bez_nazwy_8"/><linearGradient id="Gradient_bez_nazwy_68" x1="226.23" y1="43.37" x2="236.07" y2="43.37" gradientUnits="userSpaceOnUse"><stop offset="0" stop-color="#fff"/><stop offset=".02" stop-color="#e3f1f8"/><stop offset=".05" stop-color="#b1d7eb"/><stop offset=".09" stop-color="#85c1df"/><stop offset=".13" stop-color="#60aed6"/><stop offset=".17" stop-color="#429ece"/><stop offset=".21" stop-color="#2a93c8"/><stop offset=".26" stop-color="#198ac4"/><stop offset=".31" stop-color="#1085c1"/><stop offset=".37" stop-color="#0d84c1"/></linearGradient><linearGradient id="Gradient_bez_nazwy_68-2" x1="214.55" y1="60.67" x2="245.92" y2="60.67" xlink:href="#Gradient_bez_nazwy_68"/><linearGradient id="Gradient_bez_nazwy_68-3" x1="220.64" y1="51.82" x2="240.83" y2="51.82" xlink:href="#Gradient_bez_nazwy_68"/><linearGradient id="Gradient_bez_nazwy_68-4" x1="212.38" y1="20.54" x2="248.16" y2="20.54" xlink:href="#Gradient_bez_nazwy_68"/><radialGradient id="Gradient_bez_nazwy_100" cx="79.4" cy="72.97" fx="79.4" fy="72.97" r="33.28" gradientUnits="userSpaceOnUse"><stop offset=".02" stop-color="#fff"/><stop offset=".36" stop-color="#fde7e1"/><stop offset=".99" stop-color="#f9b5a4"/></radialGradient><linearGradient id="Gradient_bez_nazwy_105" x1="402.39" y1="223.16" x2="466.21" y2="223.16" gradientUnits="userSpaceOnUse"><stop offset=".02" stop-color="#fff"/><stop offset=".19" stop-color="#e1f4ec"/><stop offset=".56" stop-color="#96d9bd"/><stop offset=".99" stop-color="#38b883"/></linearGradient></defs><g id="Warstwa_1-2"><g id="activity"><g id="Lightbulb"><path class="cls-3" d="M287.66,185.83c-5-22.83-25.47-50.6-52.63-48.93-25.13,1.55-40.8,27.37-45.4,45.97-.62,2.49-6.82,29.5,10.71,52.91,3.46,4.62,19.44,25.96,42.68,23.89,20.76-1.85,32.4-21.08,36.44-27.77,2.8-4.62,13.21-23.17,8.2-46.07Z"/><path class="cls-2" d="M239.55,256.63c-13.36-.26-22.87-7.9-26.31-10.75-17.41-14.4-22.91-39.68-17.42-60.35,5.28-19.89,22.09-41.11,41.96-42.51,1.09-.08,2.18-.12,3.29-.12,22.02,0,40.33,23.88,45.37,45.38,1.04,4.43,3.52,15.61-.39,28.89-5.75,19.53-24.23,39.89-46.5,39.45Z"/><path class="cls-7" d="M287.66,185.83c-5.01-22.86-25.5-50.6-52.63-48.93-25.12,1.54-40.83,27.37-45.4,45.97-6.43,26.11,6.83,47.09,9.57,51.2,4.3,6.47,17.84,26.84,39.48,26.9,23.22,.06,37.3-23.3,40.78-29.07,3.02-5.02,13.17-23.4,8.2-46.07Z"/></g><g><g><path class="cls-1" d="M72.42,195.16c.58,.63,1.12,1.76,.28,7.07-1.56,9.84-5.18,16.91-5.66,17.82-3.53,6.76-7.76,14.86-16.41,23.48-10.44,10.41-20.72,15-29.13,18.67-7.39,3.22-16.73,7.29-19.8,3.96-1.68-1.83-.67-5.3,1.41-12.16,3.56-11.71,8.51-19.73,9.62-21.5,2.56-4.08,5.88-9.31,11.6-14.99,8.07-8.02,15.78-11.85,24.61-16.12,9.05-4.39,20.19-9.79,23.48-6.22Z"/><path class="cls-1" d="M11.04,204.85c17.26,17.09,34.52,34.18,51.78,51.27"/><path class="cls-1" d="M53.08,246.25c.98-.91,3.08-.04,6.44,1.4,.64,.28,15.18,6.63,14.06,11.72-.08,.34-.25,.79-.65,1.27-1.85,2.15-3.71,4.29-5.56,6.44-.31,.27-.78,.6-1.4,.7-3.34,.57-6.94-5.91-8.95-9.54-2.22-3.99-5.73-10.32-3.92-12Z"/><path class="cls-1" d="M21.66,215.34c-.96,.94-3.07,.12-6.47-1.24-.65-.26-15.35-6.23-14.36-11.35,.07-.34,.23-.79,.62-1.29,1.8-2.19,3.59-4.39,5.39-6.58,.3-.27,.76-.62,1.39-.74,3.33-.66,7.09,5.72,9.2,9.3,2.32,3.94,6,10.17,4.23,11.89Z"/><path class="cls-1" d="M66.27,201.46c-1.49,4.8-2.99,9.59-4.48,14.39-3.26-3.08-6.52-6.16-9.78-9.23,4.75-1.72,9.5-3.44,14.26-5.16Z"/><path class="cls-1" d="M32.3,245.13c-3.1-2.99-6.2-5.97-9.3-8.96,1.06-1.68,2.66-4.06,4.82-6.76,3.14-3.93,4.76-5.9,7.18-6.68,.32-.1,5.23-1.58,8.54,1.52,2.75,2.58,2.64,6.67,1.86,9.13-.79,2.5-2.76,4.11-6.65,7.24-2.56,2.06-4.84,3.54-6.45,4.51Z"/><path class="cls-1" d="M31.4,249.69c-3.95-3.72-7.89-7.44-11.84-11.17-.07-1.16-.04-2.87,.54-4.81,.7-2.33,1.93-4.12,4.01-6.35,4.72-5.06,7.12-7.63,11.35-8.58,1.11-.25,7.47-1.67,11.66,2.37,4.7,4.53,2.61,12.05,2.33,13.03-1.01,3.42-3.02,5.49-6.07,8.63-3.86,3.96-7.12,5.37-7.89,5.68-1.62,.67-3.05,1.01-4.08,1.2Z"/></g><g><path class="cls-22" d="M72.96,196.87c.56,.61,1.09,1.71,.27,6.87-1.52,9.56-5.03,16.42-5.49,17.31-3.43,6.57-7.54,14.43-15.93,22.8-10.14,10.11-20.12,14.57-28.29,18.13-7.17,3.12-16.25,7.08-19.23,3.85-1.64-1.77-.65-5.14,1.37-11.81,3.46-11.37,8.26-19.16,9.34-20.88,2.48-3.96,5.71-9.04,11.26-14.56,7.84-7.79,15.33-11.5,23.9-15.66,8.79-4.26,19.61-9.51,22.8-6.04Z"/><path class="cls-13" d="M13.35,206.28c16.76,16.6,33.53,33.2,50.29,49.79"/><path class="cls-12" d="M54.18,246.49c.95-.88,2.99-.04,6.25,1.36,.62,.27,14.75,6.44,13.65,11.39-.07,.33-.24,.76-.63,1.23-1.8,2.08-3.6,4.17-5.4,6.25-.3,.26-.76,.58-1.36,.68-3.24,.56-6.74-5.74-8.7-9.27-2.15-3.88-5.56-10.02-3.81-11.65Z"/><path class="cls-11" d="M23.67,216.47c-.93,.91-2.99,.11-6.29-1.2-.63-.25-14.91-6.05-13.94-11.03,.06-.33,.22-.77,.6-1.25,1.75-2.13,3.49-4.26,5.24-6.39,.29-.27,.74-.6,1.35-.72,3.23-.64,6.88,5.56,8.94,9.04,2.25,3.82,5.82,9.87,4.11,11.55Z"/></g><g><path class="cls-7" d="M72.63,195.19c.58,.63,1.12,1.76,.28,7.07-1.56,9.84-5.18,16.91-5.66,17.82-3.53,6.76-7.76,14.86-16.41,23.48-10.44,10.41-20.72,15-29.13,18.67-7.39,3.22-16.73,7.29-19.8,3.96-1.68-1.83-.67-5.3,1.41-12.16,3.56-11.71,8.51-19.73,9.62-21.5,2.56-4.08,5.88-9.31,11.6-14.99,8.07-8.02,15.78-11.85,24.61-16.12,9.05-4.39,20.19-9.79,23.48-6.22Z"/><path class="cls-7" d="M11.25,204.88c17.26,17.09,34.52,34.18,51.78,51.27"/><path class="cls-7" d="M53.29,246.28c.98-.91,3.08-.04,6.44,1.4,.64,.28,15.18,6.63,14.06,11.72-.08,.34-.25,.79-.65,1.27-1.85,2.15-3.71,4.29-5.56,6.44-.31,.27-.78,.6-1.4,.7-3.34,.57-6.94-5.91-8.95-9.54-2.22-3.99-5.73-10.32-3.92-12Z"/><path class="cls-7" d="M21.88,215.37c-.96,.94-3.07,.12-6.47-1.24-.65-.26-15.35-6.23-14.36-11.35,.07-.34,.23-.79,.62-1.29,1.8-2.19,3.59-4.39,5.39-6.58,.3-.27,.76-.62,1.39-.74,3.33-.66,7.09,5.72,9.2,9.3,2.32,3.94,6,10.17,4.23,11.89Z"/><path class="cls-6" d="M66.49,201.49c-1.49,4.8-2.99,9.59-4.48,14.39-3.26-3.08-6.52-6.16-9.78-9.23,4.75-1.72,9.5-3.44,14.26-5.16Z"/><path class="cls-6" d="M32.52,245.16c-3.1-2.99-6.2-5.97-9.3-8.96,1.06-1.68,2.66-4.06,4.82-6.76,3.14-3.93,4.76-5.9,7.18-6.68,.32-.1,5.23-1.58,8.54,1.52,2.75,2.58,2.64,6.67,1.86,9.13-.79,2.5-2.76,4.11-6.65,7.24-2.56,2.06-4.84,3.54-6.45,4.51Z"/><path class="cls-6" d="M31.61,249.72c-3.95-3.72-7.89-7.44-11.84-11.17-.07-1.16-.04-2.87,.54-4.81,.7-2.33,1.93-4.12,4.01-6.35,4.72-5.06,7.12-7.63,11.35-8.58,1.11-.25,7.47-1.67,11.66,2.37,4.7,4.53,2.61,12.05,2.33,13.03-1.01,3.42-3.02,5.49-6.07,8.63-3.86,3.96-7.12,5.37-7.89,5.68-1.62,.67-3.05,1.01-4.08,1.2Z"/></g></g><g><path class="cls-1" d="M420.41,74.16h10.14c1.66,0,3,1.34,3,3v28.5c0,1.66-1.34,3-3,3h-7.14c-1.66,0-3-1.34-3-3v-31.5h0Z" transform="translate(202.38 -283.05) rotate(46.96)"/><path class="cls-1" d="M429.56,93.02h5.31c1.66,0,3,1.34,3,3v5.32c0,1.66-1.34,3-3,3h-2.31c-1.66,0-3-1.34-3-3v-8.32h0Z" transform="translate(209.83 -285.67) rotate(46.96)"/><path class="cls-1" d="M412.34,58.05h10.14c1.66,0,3,1.34,3,3v43.59c0,1.66-1.34,3-3,3h-7.14c-1.66,0-3-1.34-3-3V58.05h0Z" transform="translate(193.56 -279.87) rotate(46.96)"/><path class="cls-1" d="M378.98,29.29h10.14c1.66,0,3,1.34,3,3v28.5c0,1.66-1.34,3-3,3h-7.14c-1.66,0-3-1.34-3-3V29.29h0Z" transform="translate(156.42 -267.01) rotate(46.96)"/><path class="cls-1" d="M386.39,29.79h10.14c1.66,0,3,1.34,3,3v43.59c0,1.66-1.34,3-3,3h-7.14c-1.66,0-3-1.34-3-3V29.79h0Z" transform="translate(164.66 -269.88) rotate(46.96)"/><path class="cls-1" d="M373.68,33.69h5.31c1.66,0,3,1.34,3,3v5.32c0,1.66-1.34,3-3,3h-2.31c-1.66,0-3-1.34-3-3v-8.32h0Z" transform="translate(148.72 -263.66) rotate(46.96)"/><path class="cls-1" d="M391.33,63.59h25.33c1.66,0,3,1.34,3,3v5.32c0,1.66-1.34,3-3,3h-22.33c-1.66,0-3-1.34-3-3v-8.32h0Z" transform="translate(179.36 -274.38) rotate(46.96)"/><rect class="cls-21" x="388.23" y="31.98" width="10.4" height="46.61" rx="2" ry="2" transform="translate(165.32 -270) rotate(46.96)"/><rect class="cls-17" x="412.96" y="58.94" width="10.4" height="46.61" rx="2" ry="2" transform="translate(192.88 -279.51) rotate(46.96)"/><rect class="cls-16" x="421.13" y="75" width="10.4" height="31.63" rx="2" ry="2" transform="translate(201.73 -282.76) rotate(46.96)"/><rect class="cls-19" x="380.42" y="30.8" width="10.4" height="31.63" rx="2" ry="2" transform="translate(156.5 -267.04) rotate(46.96)"/><rect class="cls-20" x="429.95" y="93.41" width="6.47" height="9" rx="2" ry="2" transform="translate(209.1 -285.53) rotate(46.96)"/><rect class="cls-18" x="375.6" y="35.07" width="6.87" height="9" rx="2" ry="2" transform="translate(149.26 -264.47) rotate(46.96)"/><g><g><rect class="cls-7" x="412.79" y="58.28" width="12.05" height="49.32" rx="3" ry="3" transform="translate(193.59 -279.77) rotate(46.96)"/><path class="cls-7" d="M421.24,74.16h8.5c1.66,0,3,1.34,3,3v28.5c0,1.66-1.34,3-3,3h-8.5v-34.5h0Z" transform="translate(202.38 -283.05) rotate(46.96)"/><path class="cls-7" d="M429.71,92.9h4.89c1.66,0,3,1.34,3,3v5.09c0,1.66-1.34,3-3,3h-4.89v-11.09h0Z" transform="translate(209.64 -285.69) rotate(46.96)"/></g><g><rect class="cls-7" x="386.8" y="30.06" width="12.05" height="49.32" rx="3" ry="3" transform="translate(620.93 379.17) rotate(-133.04)"/><path class="cls-7" d="M379.18,28.73h8.5c1.66,0,3,1.34,3,3v28.5c0,1.66-1.34,3-3,3h-8.5V28.73h0Z" transform="translate(614.04 358.71) rotate(-133.04)"/><path class="cls-7" d="M374.43,33.3h4.89c1.66,0,3,1.34,3,3v5.09c0,1.66-1.34,3-3,3h-4.89v-11.09h0Z" transform="translate(608.21 341.91) rotate(-133.04)"/></g><rect class="cls-7" x="392.41" y="63.04" width="26.31" height="12.03" transform="translate(179.24 -274.5) rotate(46.96)"/></g></g><path class="cls-5" d="M157.69,206.06c-23.17,1.85-46.33,3.7-69.5,5.55"/><path class="cls-5" d="M121.45,114.75c17.59,14.1,35.18,28.21,52.77,42.31"/><path class="cls-5" d="M233.28,74.59c-.02,16.92-.04,33.83-.06,50.75"/><path class="cls-5" d="M374.85,97.14c-23.45,20.66-46.91,41.31-70.36,61.97"/><path class="cls-5" d="M318.46,219.06c12.52,1.41,25.05,2.81,37.57,4.22,11.82,1.33,23.64,2.66,35.45,3.98"/><path class="cls-4" d="M253.63,134.97c9.49,2.64,22.28,6.2,30.14,17.62,7.02,10.2,6.42,21.31,6.03,28.75-.13,2.48-.74,13.83-4,14.36-2.83,.46-3.97-7.7-13.62-21.31-4.84-6.82-7.87-9.44-10.43-16.42-2.12-5.8-1.29-7.42-3.02-8.62-5.41-3.74-15.3,11.01-39.87,24.11-11.57,6.17-21.98,9.65-26.36,20.39-1.7,4.17-1.68,7.46-1.92,7.43-.71-.09-4.71-28.09,10.2-47.76,9.93-13.09,27.88-22.01,44.05-20.4,3.34,.33,5.91,1.05,8.81,1.85Z"/><path class="cls-7" d="M254.2,133.59c10.27,2.86,24.1,6.7,32.6,19.06,7.59,11.03,6.95,23.05,6.52,31.09-.14,2.68-.8,14.96-4.32,15.53-3.07,.5-4.29-8.33-14.73-23.05-5.23-7.38-8.51-10.22-11.28-17.76-2.3-6.27-1.4-8.03-3.27-9.32-5.85-4.05-16.55,11.9-43.13,26.08-12.52,6.67-23.77,10.44-28.51,22.05-1.84,4.51-1.81,8.07-2.08,8.04-.77-.1-5.1-30.39,11.03-51.66,10.74-14.16,30.16-23.81,47.64-22.07,3.61,.36,6.39,1.13,9.53,2.01Z"/><g id="puchar"><rect class="cls-23" x="226.23" y="40.02" width="9.84" height="6.71"/><rect class="cls-9" x="214.55" y="57.28" width="31.37" height="6.78"/><rect class="cls-8" x="220.64" y="48.44" width="20.18" height="6.76"/><path class="cls-1" d="M210.73,1h38.1V22.12c0,9.37-7.61,16.98-16.98,16.98h-4.14c-9.37,0-16.98-7.61-16.98-16.98V1h0Z"/><path class="cls-10" d="M212.38,2.65h35.78V22.49c0,8.8-7.14,15.94-15.94,15.94h-3.89c-8.8,0-15.94-7.14-15.94-15.94V2.65h0Z"/><path class="cls-7" d="M210.73,1h38.1V22.12c0,9.37-7.61,16.98-16.98,16.98h-4.14c-9.37,0-16.98-7.61-16.98-16.98V1h0Z"/><rect class="cls-7" x="224.82" y="39.1" width="10.66" height="8.43"/><path class="cls-7" d="M222.27,47.53h15.56c1.66,0,3,1.34,3,3v5.75h-21.56v-5.75c0-1.66,1.34-3,3-3Z"/><rect class="cls-7" x="213.05" y="56.28" width="32.87" height="8.75" rx="3" ry="3"/><path class="cls-7" d="M249.13,6.76c.66-.13,3.45-.62,6.28,1.05,2.72,1.6,3.68,4.12,3.9,4.79,.34,1.02,1.17,3.96,0,7.31-.35,1.01-1.27,3.63-4.03,5.29-2.83,1.7-5.69,1.26-6.45,1.11,.1-6.51,.2-13.03,.3-19.54Z"/><path class="cls-7" d="M210.44,6.76c-.72-.14-3.49-.59-6.28,1.05-2.61,1.53-3.57,3.91-3.9,4.79-1.31,3.41-.31,6.45,0,7.31,.18,.63,1.06,3.5,4.03,5.29,2.91,1.75,5.79,1.25,6.45,1.11-.1-6.51-.2-13.03-.3-19.54Z"/></g><g><path class="cls-1" d="M85.86,47.94c.15,2,.3,4,.45,5.99-2.81,2.68-5.62,5.36-8.42,8.04-3.03-.19-6.06-.38-9.09-.57,.1-2.1,.13-3.16,.1-3.16-.05,0-.22,2.02-.51,6.06,.07,4.75,.15,9.49,.22,14.24-.02,.96-.19,4.11-2.58,6.64-1.37,1.45-3.02,2.22-3.06,2.16-.04-.06,1.67-1.12,3.57-2.77,4.11-3.57,4.03-5.5,6.78-7.61,3.57-2.72,7.85-2.63,8.33-2.62,6.3,.22,10.99,5.61,11.47,5.05,.33-.38-2.49-2.13-2.63-4.81-.22-4.4,6.93-7.86,7.7-8.23,1.38-.67,4.5-2.13,8.62-1.7,1.74,.18,5.21,.54,7.68,3.38,1.4,1.61,1.92,3.36,2.13,4.37v22.29c-.7,1.6-2,4-4.41,6.02-3.67,3.08-7.84,3.58-10.8,3.89-12.88,1.32-19.32,1.98-26.54,1.06-2.63-.34-29.66-3.97-30.86-12.87-.04-.26,0-1.78,.08-4.82,.11-4.47,.3-8.3,.35-9.2,.43-6.64,4.69-15.25,9.2-21.23,2.04-2.7,4.81-5.77,12.38-14.86h0c3.54-4.25,10.55-2.67,13.85-1.92,2.01,.46,3.29,1.01,4.41,1.96,.58,.49,2.28,1.94,2.13,3.76-.05,.63-.31,1.1-.53,1.46-1.52,2.49-3.06,5.01-6.01,5.74-1.57,.39-4.59,.52-5.35-1.09-.63-1.32,.36-3.61,2.74-5.13"/><path class="cls-14" d="M84.75,49.12c.15,1.9,.29,3.81,.44,5.71-2.7,2.55-5.4,5.11-8.1,7.66-2.91-.18-5.83-.36-8.74-.55,.09-2,.12-3.01,.09-3.01-.04,0-.21,1.92-.49,5.77,.07,4.52,.14,9.04,.21,13.57-.02,.91-.18,3.91-2.48,6.33-1.32,1.38-2.91,2.12-2.94,2.06-.04-.06,1.6-1.07,3.43-2.64,3.95-3.4,3.87-5.24,6.52-7.25,3.43-2.6,7.54-2.51,8.01-2.49,6.05,.21,10.56,5.35,11.02,4.81,.32-.37-2.4-2.03-2.53-4.59-.21-4.19,6.66-7.49,7.4-7.84,1.32-.63,4.32-2.03,8.29-1.62,1.67,.17,5.01,.52,7.39,3.22,1.35,1.53,1.84,3.2,2.04,4.17v21.24c-.67,1.53-1.92,3.81-4.24,5.74-3.52,2.93-7.54,3.41-10.38,3.7-12.38,1.26-18.57,1.89-25.51,1.01-2.53-.32-28.5-3.78-29.67-12.27-.03-.25,0-1.7,.08-4.59,.11-4.26,.28-7.91,.34-8.77,.42-6.33,4.51-14.53,8.84-20.23,1.96-2.58,4.62-5.5,11.9-14.16h0c3.41-4.05,10.14-2.54,13.31-1.83,1.94,.43,3.17,.96,4.24,1.87,.55,.47,2.19,1.85,2.04,3.58-.05,.61-.3,1.05-.51,1.39-1.46,2.37-2.94,4.77-5.77,5.47-1.51,.37-4.41,.49-5.15-1.03-.6-1.26,.34-3.44,2.63-4.89"/><path class="cls-7" d="M85.86,46.95c.15,2,.3,4,.45,5.99-2.81,2.68-5.62,5.36-8.42,8.04-3.03-.19-6.06-.38-9.09-.57,.1-2.1,.13-3.16,.1-3.16-.05,0-.22,2.02-.51,6.06,.07,4.75,.15,9.49,.22,14.24-.02,.96-.19,4.11-2.58,6.64-1.37,1.45-3.02,2.22-3.06,2.16-.04-.06,1.67-1.12,3.57-2.77,4.11-3.57,4.03-5.5,6.78-7.61,3.57-2.72,7.85-2.63,8.33-2.62,6.3,.22,10.99,5.61,11.47,5.05,.33-.38-2.49-2.13-2.63-4.81-.22-4.4,6.93-7.86,7.7-8.23,1.38-.67,4.5-2.13,8.62-1.7,1.74,.18,5.21,.54,7.68,3.38,1.4,1.61,1.92,3.36,2.13,4.37v22.29c-.7,1.6-2,4-4.41,6.02-3.67,3.08-7.84,3.58-10.8,3.89-12.88,1.32-19.32,1.98-26.54,1.06-2.63-.34-29.66-3.97-30.86-12.87-.04-.26,0-1.78,.08-4.82,.11-4.47,.3-8.3,.35-9.2,.43-6.64,4.69-15.25,9.2-21.23,2.04-2.7,4.81-5.77,12.38-14.86h0c3.54-4.25,10.55-2.67,13.85-1.92,2.01,.46,3.29,1.01,4.41,1.96,.58,.49,2.28,1.94,2.13,3.76-.05,.63-.31,1.1-.53,1.46-1.52,2.49-3.06,5.01-6.01,5.74-1.57,.39-4.59,.52-5.35-1.09-.63-1.32,.36-3.61,2.74-5.13"/></g><g><circle class="cls-1" cx="433.19" cy="223.16" r="33.03"/><circle class="cls-15" cx="434.3" cy="223.16" r="31.91"/><path class="cls-7" d="M400.16,223.16c0,18.24,14.79,33.03,33.03,33.03s33.03-14.79,33.03-33.03-14.79-33.03-33.03-33.03c-.99,0-3.23-.05-6.1,.56-12.41,2.66-26.93,15.01-26.93,32.47Z"/><path class="cls-7" d="M408.75,201.62c2.84,.19,8.36,.96,14.09,4.53,0,0,6.22,3.87,10.37,10.81,9.58,15.99-.55,37.72-1.26,39.21"/><path class="cls-7" d="M424.9,191.26c2.38,1.44,5.44,3.54,8.64,6.52,2.09,1.95,6.42,6.3,10.18,13.04,1.36,2.45,4.68,8.85,6.16,17.85,1.67,10.11,.21,18.53-1.12,23.62"/><path class="cls-7" d="M456.09,199.36c-1.28,6.33-1.22,11.58-.92,15.17,.32,3.86,.63,7.17,2.5,11.02,2.02,4.18,4.86,6.9,6.74,8.42"/><path class="cls-7" d="M465.14,214.75c-3.9-.1-8.84-.04-14.52,.51-5.4,.52-9.51,1.29-11.17,1.62-4.6,.91-11.04,2.17-17.93,5.14-4.73,2.04-11.84,5.82-19.2,12.91"/><path class="cls-7" d="M408.59,237.15c.4,.68,.88,1.43,1.47,2.2,.55,.73,1.1,1.36,1.62,1.91"/><path class="cls-7" d="M417.7,246.11c.72,.68,1.89,1.62,3.53,2.35,1.51,.67,2.87,.93,3.82,1.03"/></g><path class="cls-7" d="M225.16,196.4c-.08-.17-2.07-4.32-6.46-4.73-3.42-.32-6.78,1.76-8.18,5.16"/><path class="cls-7" d="M261.61,195.94c-.08-.17-2.07-4.32-6.46-4.73-3.42-.32-6.78,1.76-8.18,5.16"/></g></g></svg>