<svg xmlns="http://www.w3.org/2000/svg" xmlns:xlink="http://www.w3.org/1999/xlink" viewBox="0 0 115.77 65.27"><defs><style>.cls-1{fill:#f6f6f6;}.cls-2{fill:url(#Gradient_bez_nazwy_8);}.cls-3{fill:url(#Gradient_bez_nazwy_8-2);}.cls-4{fill:url(#Gradient_bez_nazwy_8-3);}.cls-5{fill:url(#Gradient_bez_nazwy_8-4);}.cls-6{fill:url(#Gradient_bez_nazwy_8-5);}.cls-7{fill:url(#Gradient_bez_nazwy_8-6);}.cls-8{fill:none;stroke:#555e65;stroke-miterlimit:10;stroke-width:2px;}</style><radialGradient id="Gradient_bez_nazwy_8" cx="34.46" cy="32.39" r="21.54" gradientUnits="userSpaceOnUse"><stop offset="0" stop-color="#fff"/><stop offset="1" stop-color="#fab5a4"/></radialGradient><radialGradient id="Gradient_bez_nazwy_8-2" cx="81.15" cy="32.8" r="21.54" xlink:href="#Gradient_bez_nazwy_8"/><radialGradient id="Gradient_bez_nazwy_8-3" cx="96.24" cy="32.65" r="15.02" xlink:href="#Gradient_bez_nazwy_8"/><radialGradient id="Gradient_bez_nazwy_8-4" cx="19.58" cy="32.12" r="15.02" xlink:href="#Gradient_bez_nazwy_8"/><radialGradient id="Gradient_bez_nazwy_8-5" cx="108.83" cy="32.43" r="5" xlink:href="#Gradient_bez_nazwy_8"/><radialGradient id="Gradient_bez_nazwy_8-6" cx="7.28" cy="32.12" r="5.11" xlink:href="#Gradient_bez_nazwy_8"/></defs><g id="Warstwa_2" data-name="Warstwa 2"><g id="sztanga"><path class="cls-1" d="M89,10.55h13.77a3,3,0,0,1,3,3v38a3,3,0,0,1-3,3H92a3,3,0,0,1-3-3v-41A0,0,0,0,1,89,10.55Z"/><path class="cls-1" d="M104.71,25.39h7.61a3,3,0,0,1,3,3v8.44a3,3,0,0,1-3,3h-4.61a3,3,0,0,1-3-3V25.39A0,0,0,0,1,104.71,25.39Z"/><path class="cls-1" d="M74,1H87.74a3,3,0,0,1,3,3V61.27a3,3,0,0,1-3,3H77a3,3,0,0,1-3-3V1A0,0,0,0,1,74,1Z"/><path class="cls-1" d="M11.06,10.11H24.83a3,3,0,0,1,3,3v38a3,3,0,0,1-3,3H14.06a3,3,0,0,1-3-3v-41A0,0,0,0,1,11.06,10.11Z"/><path class="cls-1" d="M25,.58H38.8a3,3,0,0,1,3,3V60.85a3,3,0,0,1-3,3H28a3,3,0,0,1-3-3V.58A0,0,0,0,1,25,.58Z"/><path class="cls-1" d="M.73,25.84H8.33a3,3,0,0,1,3,3v8.44a3,3,0,0,1-3,3H3.73a3,3,0,0,1-3-3V25.84a0,0,0,0,1,0,0Z"/><path class="cls-1" d="M39.92,26.09H73.06a3,3,0,0,1,3,3v8.44a3,3,0,0,1-3,3H42.92a3,3,0,0,1-3-3V26.09A0,0,0,0,1,39.92,26.09Z"/><rect class="cls-2" x="27.83" y="2.66" width="13.27" height="59.47" rx="2"/><rect class="cls-3" x="74.51" y="3.07" width="13.27" height="59.47" rx="2"/><rect class="cls-4" x="89.61" y="12.47" width="13.27" height="40.36" rx="2"/><rect class="cls-5" x="12.95" y="11.94" width="13.27" height="40.36" rx="2"/><rect class="cls-6" x="104.71" y="26.69" width="8.26" height="11.48" rx="2"/><rect class="cls-7" x="2.89" y="26.38" width="8.76" height="11.48" rx="2"/><rect class="cls-8" x="74.67" y="1.34" width="15.37" height="62.93" rx="3"/><path class="cls-8" d="M90,10.55h11.67a3,3,0,0,1,3,3v38a3,3,0,0,1-3,3H90a0,0,0,0,1,0,0v-44A0,0,0,0,1,90,10.55Z"/><path class="cls-8" d="M104.71,25.39h7.06a3,3,0,0,1,3,3v8.15a3,3,0,0,1-3,3h-7.06a0,0,0,0,1,0,0V25.39A0,0,0,0,1,104.71,25.39Z"/><rect class="cls-8" x="25.73" y="1" width="15.37" height="62.93" rx="3" transform="translate(66.82 64.93) rotate(180)"/><path class="cls-8" d="M11.06,10.21H22.73a3,3,0,0,1,3,3v38a3,3,0,0,1-3,3H11.06a0,0,0,0,1,0,0v-44A0,0,0,0,1,11.06,10.21Z" transform="translate(36.79 64.43) rotate(180)"/><path class="cls-8" d="M1,25H8.06a3,3,0,0,1,3,3V36.2a3,3,0,0,1-3,3H1a0,0,0,0,1,0,0V25A0,0,0,0,1,1,25Z" transform="translate(12.06 64.24) rotate(180)"/><rect class="cls-8" x="41.1" y="25.39" width="33.57" height="15.35"/></g></g></svg>