<svg xmlns="http://www.w3.org/2000/svg" xmlns:xlink="http://www.w3.org/1999/xlink" viewBox="0 0 94.28 104.08"><defs><style>.cls-1{fill:#f6f6f6;}.cls-2{fill:url(#Gradient_bez_nazwy_100);}.cls-3{fill:none;stroke:#555e65;stroke-miterlimit:10;stroke-width:2px;}</style><radialGradient id="Gradient_bez_nazwy_100" cx="48.84" cy="68.48" r="38.89" gradientUnits="userSpaceOnUse"><stop offset="0.02" stop-color="#fff"/><stop offset="0.36" stop-color="#fde7e2"/><stop offset="0.99" stop-color="#fab5a4"/></radialGradient></defs><g id="Warstwa_2" data-name="Warstwa 2"><g id="Crafticons_-_Simple_Set" data-name="Crafticons - Simple Set"><path class="cls-1" d="M1.15,11.74H90.43a3,3,0,0,1,3,3v85.34a3,3,0,0,1-3,3H4.15a3,3,0,0,1-3-3V11.74A0,0,0,0,1,1.15,11.74Z"/><rect class="cls-2" x="4.25" y="36.29" width="89.17" height="64.38"/><rect class="cls-3" x="1" y="33.87" width="92.28" height="69.21"/><rect class="cls-3" x="1" y="11.74" width="92.28" height="22.13"/><rect class="cls-3" x="16.9" y="1" width="0.94" height="20.09"/><rect class="cls-3" x="76.13" y="2.71" width="0.94" height="20.09"/><rect class="cls-3" x="17.37" y="46.81" width="12" height="0.31"/><rect class="cls-3" x="65.07" y="46.66" width="12" height="0.31"/><rect class="cls-3" x="41.24" y="46.81" width="12" height="0.31"/><rect class="cls-3" x="17.39" y="59.59" width="12" height="0.31"/><rect class="cls-3" x="65.09" y="59.44" width="12" height="0.31"/><rect class="cls-3" x="41.26" y="59.59" width="12" height="0.31"/><rect class="cls-3" x="17.29" y="72.75" width="12" height="0.31"/><rect class="cls-3" x="64.99" y="72.6" width="12" height="0.31"/><rect class="cls-3" x="41.16" y="72.75" width="12" height="0.31"/><rect class="cls-3" x="17.41" y="85.67" width="12" height="0.31"/><rect class="cls-3" x="65.11" y="85.52" width="12" height="0.31"/><rect class="cls-3" x="41.28" y="85.67" width="12" height="0.31"/></g></g></svg>